PathFileType	4	(X/Y/Z)	./resultDataOpenSim/trcMotMarkerGrf/sub10/qtm-04-08.trc
DataRate	CameraRate	NumFrames	NumMarkers	Units	OrigDataRate	OrigDataStartFrame	OrigNumFrames
250.000000	250.000000	13	24	m	250.000000	339	541
Frame#	Time	L.Toe.Tip			R.Toe.Tip			L.Ankle.Lat			R.Ankle.Lat			L.Ankle.Med			R.Ankle.Med			L.Heel			R.Heel			L.Knee.Lat			R.Knee.Lat			L.Knee.Med			R.Knee.Med			L.Thigh.Upper			R.Thigh.Upper			L.ASIS			R.ASIS			V.Sacral			L.Acromium			R.Acromium			C7			L.Elbow			R.Elbow			L.Wrist.Lat			R.Wrist.Lat
		X1	Y1	Z1	X2	Y2	Z2	X3	Y3	Z3	X4	Y4	Z4	X5	Y5	Z5	X6	Y6	Z6	X7	Y7	Z7	X8	Y8	Z8	X9	Y9	Z9	X10	Y10	Z10	X11	Y11	Z11	X12	Y12	Z12	X13	Y13	Z13	X14	Y14	Z14	X15	Y15	Z15	X16	Y16	Z16	X17	Y17	Z17	X18	Y18	Z18	X19	Y19	Z19	X20	Y20	Z20	X21	Y21	Z21	X22	Y22	Z22	X23	Y23	Z23	X24	Y24	Z24

339	1.352	-0.024044328	-0.03206859	-0.022235878	0.78102262	0.04056537	0.11483742	-0.10880712	0.070195297	-0.061513144	0.64201336	0.055548474	0.16040267	-0.086478766	0.085773551	0.018244171	0.65602441	0.079886775	0.074125257	-0.1726881	0.08716951	-0.016962381	0.58885729	0.029690781	0.11915248	0.12710033	0.37815371	-0.096262233	0.59937898	0.44822267	0.16700006	0.14174425	0.34664438	0.022635248	0.59778426	0.45195441	0.038182123	0.25125386	0.74535189	-0.14075459	0.38907726	0.79219038	0.22648812	0.34405937	0.84269179	-0.10736546	0.42318377	0.87223407	0.12724445	0.19361642	0.86820654	0.078735963	0.35652356	1.3274883	-0.11961988	0.35974808	1.3170156	0.20345725	0.27191784	1.3557303	0.038192916	0.36394858	0.97656458	-0.18012024	0.18930618	1.0106794	0.21594044	0.59309575	0.90970098	-0.1123916	0.20287851	0.79862905	0.32930229
340	1.356	-0.022642501	-0.032213133	-0.022401341	0.78206926	0.039940536	0.1146918	-0.10390997	0.07288143	-0.062444044	0.64282673	0.055536681	0.16020805	-0.080895447	0.087725135	0.017157439	0.65680268	0.07953812	0.073912014	-0.16677626	0.091474257	-0.017293391	0.5893582	0.029911089	0.11917613	0.13505938	0.37863503	-0.096675983	0.60435863	0.44891621	0.16658953	0.1493468	0.34671742	0.022066525	0.60205901	0.45294495	0.037714653	0.25878157	0.74547462	-0.14055208	0.39495743	0.793857	0.22701358	0.35170047	0.84298942	-0.10623548	0.42951228	0.87355698	0.12826282	0.19998335	0.86947221	0.07817296	0.36338911	1.3289228	-0.11821345	0.36619542	1.3181273	0.20469878	0.27845759	1.3568253	0.039477095	0.36843916	0.97790145	-0.17940935	0.19637861	1.0115783	0.21666958	0.59728795	0.90902083	-0.11173226	0.21019331	0.79939761	0.33007214
341	1.36	-0.021084683	-0.032446202	-0.022594589	0.78285057	0.03951143	0.11456556	-0.098712319	0.07548621	-0.06330576	0.64343402	0.055515711	0.16001895	-0.074913807	0.089569517	0.016057923	0.65726801	0.079175846	0.07376001	-0.16041072	0.095775942	-0.017538218	0.58972873	0.030039942	0.11918397	0.14331636	0.37906201	-0.097124294	0.60922409	0.4495166	0.16614769	0.15724836	0.34667729	0.021445602	0.60624631	0.45388949	0.037244377	0.26634148	0.74563411	-0.14035085	0.40088708	0.79559662	0.22748047	0.35933351	0.84332244	-0.10507231	0.43585037	0.8749441	0.12927844	0.20624601	0.87082502	0.077588175	0.3702206	1.3303935	-0.11681885	0.37258735	1.3192934	0.20592299	0.28495739	1.3579575	0.040738207	0.3728608	0.97933962	-0.17871482	0.20364098	1.0124911	0.21738964	0.60146662	0.90832221	-0.11105141	0.2176004	0.80018076	0.33086149
342	1.364	-0.019399988	-0.032790193	-0.022818852	0.78334758	0.039247597	0.11448791	-0.093185056	0.077983677	-0.064104858	0.64381903	0.055499198	0.15985991	-0.068525354	0.091297841	0.014970626	0.65742584	0.078836665	0.073685781	-0.15360366	0.10006271	-0.017709422	0.58998179	0.030099289	0.11919808	0.15186333	0.37943333	-0.097611479	0.61399542	0.45001484	0.16568975	0.16549134	0.34652678	0.020780997	0.61032049	0.45474898	0.036804237	0.27386	0.74581318	-0.14004181	0.40687165	0.79738479	0.22790194	0.36688552	0.84372348	-0.10384641	0.44223176	0.8763985	0.13032958	0.21249401	0.87228053	0.076966037	0.37701025	1.3318911	-0.11543923	0.3789122	1.3205038	0.20712172	0.29141618	1.3591212	0.04197932	0.37718905	0.98091855	-0.17793239	0.21110806	1.0134105	0.21809813	0.60537507	0.90746781	-0.11066709	0.22507857	0.80097993	0.33167467
343	1.368	-0.017630856	-0.033215684	-0.02308269	0.78362769	0.039084697	0.11445063	-0.087310059	0.080369006	-0.064890782	0.64397937	0.055508918	0.15974877	-0.061753691	0.092914673	0.013916033	0.65736839	0.078555514	0.073662175	-0.14638874	0.10432796	-0.017832541	0.59014696	0.030114981	0.11923864	0.16066582	0.37974382	-0.098136915	0.61868154	0.4504191	0.16521815	0.17413689	0.34626813	0.020071775	0.61427637	0.45550338	0.036401931	0.28133211	0.74599119	-0.1395902	0.41290669	0.79919932	0.22829925	0.37430255	0.84421447	-0.10252995	0.44862223	0.87790294	0.13140784	0.21878234	0.87383294	0.076341336	0.3837629	1.3334097	-0.11406754	0.3851646	1.3217569	0.20830604	0.29782555	1.360308	0.043199336	0.38142602	0.9826594	-0.17698859	0.21874449	1.0143249	0.21879709	0.60883563	0.9063808	-0.1107861	0.23262871	0.80179711	0.33251408
344	1.372	-0.01580998	-0.033623989	-0.023384272	0.78380455	0.038963999	0.11443349	-0.081101879	0.082666199	-0.065705155	0.64392576	0.0555718	0.15970606	-0.054654986	0.094446833	0.012901391	0.65723296	0.078345236	0.073643152	-0.13883358	0.10857767	-0.017957729	0.59025985	0.030108206	0.11931072	0.1696774	0.3799875	-0.098699969	0.62327998	0.45074562	0.16472921	0.18322351	0.34589541	0.019307205	0.61811658	0.45615216	0.036033254	0.28882496	0.74615423	-0.13906764	0.41899116	0.80103218	0.22870579	0.38159933	0.84477615	-0.10115235	0.45498279	0.87943732	0.13249238	0.22514212	0.87545079	0.075748694	0.39048842	1.3349434	-0.11269399	0.39134156	1.3230555	0.20949086	0.3041726	1.3615083	0.044388761	0.38561133	0.98450657	-0.17599253	0.22642673	1.0152275	0.21949867	0.61199011	0.90516389	-0.11121984	0.2402732	0.80263212	0.33338335
345	1.376	-0.013942689	-0.033868217	-0.023708313	0.78395822	0.038857479	0.11441707	-0.074596581	0.084927496	-0.066542439	0.64368098	0.055708232	0.15976128	-0.047314354	0.09594929	0.01192766	0.65712618	0.07819095	0.073602317	-0.13104067	0.11283625	-0.018156045	0.59034758	0.030090287	0.11940116	0.17885254	0.38017167	-0.099310638	0.62777866	0.45100217	0.1642311	0.19272759	0.34539529	0.018466286	0.62185438	0.45670302	0.035684044	0.2964001	0.74630012	-0.13860135	0.42514253	0.80289104	0.22916269	0.38882358	0.8453693	-0.099775411	0.46129391	0.88098803	0.1335663	0.23157075	0.87709215	0.075209624	0.39718731	1.3364836	-0.11131938	0.39743301	1.3243954	0.21067206	0.31044962	1.3627146	0.045537145	0.38977894	0.98631179	-0.17523193	0.23401224	1.0161239	0.22021881	0.61513353	0.90399028	-0.11160818	0.24803153	0.80348488	0.33428963
346	1.38	-0.012000547	-0.033802083	-0.024033793	0.78410633	0.038762898	0.11438877	-0.067837316	0.087221298	-0.067364758	0.64332278	0.055901803	0.15991783	-0.039832566	0.097503077	0.011001612	0.65709726	0.078063409	0.073537731	-0.12311132	0.11714474	-0.018483464	0.59042075	0.030065121	0.11949114	0.18815377	0.38031974	-0.099973826	0.63215238	0.45117863	0.16374488	0.20258137	0.34475959	0.017538019	0.62550366	0.45715765	0.035326199	0.30404008	0.74643974	-0.13826534	0.43138298	0.80478617	0.22969871	0.39599604	0.84597567	-0.098435392	0.46754983	0.88254531	0.13461738	0.23805319	0.87871989	0.074737713	0.40384129	1.3380258	-0.10996273	0.40342536	1.3257664	0.21182896	0.31665842	1.3639245	0.046637507	0.39396615	0.98795791	-0.17491516	0.24144666	1.0170156	0.22096426	0.61840108	0.90292643	-0.1118011	0.25590006	0.80435522	0.3352407
347	1.384	-0.0099287055	-0.033325842	-0.02434022	0.78423556	0.038685371	0.11434819	-0.060871583	0.089619424	-0.068144495	0.64301729	0.056081067	0.16010703	-0.032299398	0.099201727	0.010134379	0.65714692	0.077936738	0.073457887	-0.11509353	0.12155485	-0.018960002	0.59047886	0.030034922	0.11956964	0.19756955	0.38044899	-0.10065895	0.63638369	0.45126523	0.16329413	0.21271674	0.34399933	0.016544157	0.62905653	0.45750413	0.034934243	0.31165732	0.74658875	-0.13800832	0.43770999	0.8067113	0.23031664	0.40310688	0.84660589	-0.097136152	0.47374444	0.88409709	0.13563509	0.24459094	0.88031404	0.074334725	0.41042503	1.3395716	-0.10865211	0.40931414	1.327161	0.21294565	0.32280345	1.3651401	0.047682802	0.39831664	0.98950203	-0.17496755	0.24875887	1.0178829	0.22173383	0.62173933	0.90193137	-0.11187492	0.2638563	0.80523744	0.33623669
348	1.388	-0.0076716695	-0.03241285	-0.024617836	0.78433623	0.03862544	0.11430369	-0.053755833	0.092189299	-0.068890018	0.6429096	0.056172739	0.16023287	-0.024765006	0.10112482	0.0093359975	0.65724314	0.077799952	0.073375125	-0.10696944	0.12612012	-0.019580887	0.59052097	0.030002355	0.11963691	0.2071193	0.38055721	-0.10131543	0.64049135	0.45128282	0.16289795	0.22308286	0.34314329	0.015530355	0.63248026	0.45772422	0.034524176	0.31917372	0.74675422	-0.13771305	0.44407577	0.80863478	0.23099313	0.41013683	0.8472803	-0.095876155	0.47986613	0.8856304	0.13660915	0.25116792	0.88188044	0.073993813	0.41693243	1.3411202	-0.10740351	0.41509981	1.3285753	0.21401783	0.32888321	1.3663613	0.048663981	0.40308625	0.99109909	-0.17517478	0.25598412	1.0186988	0.22252913	0.62505247	0.90095094	-0.11194584	0.27187876	0.80611321	0.33726716
349	1.392	-0.0052040796	-0.031107542	-0.024880321	0.78440942	0.038578184	0.11426372	-0.046542617	0.094981415	-0.06962718	0.64298469	0.056173073	0.16026613	-0.017226578	0.10331128	0.0086171428	0.65734726	0.077659371	0.073302043	-0.098690056	0.13087943	-0.020317029	0.5905493	0.029968941	0.11969853	0.21682522	0.38064279	-0.10192674	0.64450937	0.45127424	0.16256884	0.23363514	0.34222319	0.014534655	0.63573463	0.45781734	0.034154496	0.32658226	0.74693627	-0.13731954	0.45037152	0.81050335	0.23167117	0.41706879	0.84801463	-0.094660794	0.48590815	0.88713704	0.1375318	0.2576912	0.88345293	0.073722443	0.42338092	1.3426642	-0.1062147	0.42078374	1.3300067	0.21504352	0.33489303	1.3675871	0.049576723	0.40848432	0.99281332	-0.17544041	0.26313008	1.0194542	0.22335822	0.62828197	0.89995698	-0.11208054	0.27996292	0.80695393	0.33832029
350	1.396	-0.0025322837	-0.029492657	-0.025158988	0.78445976	0.03853753	0.11423113	-0.039241179	0.098015892	-0.070358639	0.64311932	0.056132038	0.16024736	-0.0096407834	0.10575364	0.0079849746	0.65743608	0.07753062	0.07324705	-0.090196504	0.13583871	-0.0211152	0.59056587	0.029934376	0.11975874	0.22668723	0.38071971	-0.10251803	0.64844569	0.45126224	0.16231616	0.24432148	0.34126395	0.01356653	0.63880358	0.45781205	0.033865331	0.33392528	0.74713976	-0.13685636	0.45643235	0.81225153	0.23225842	0.4238974	0.8488198	-0.093496377	0.49187904	0.88861568	0.13840355	0.26400646	0.88509128	0.073564309	0.42978397	1.3441965	-0.10508278	0.42637342	1.3314535	0.2160252	0.34082925	1.368819	0.050427052	0.41454285	0.99459542	-0.17580434	0.27018929	1.0201654	0.22423011	0.6314119	0.89894099	-0.11229771	0.28812205	0.80774648	0.3393927
351	1.4	0.00032710401	-0.027656934	-0.025485732	0.78449038	0.038499812	0.11420446	-0.031804974	0.10128354	-0.07105448	0.6432225	0.056090577	0.16022349	-0.0019566139	0.10841216	0.0074306582	0.65750367	0.077426601	0.073213811	-0.081423662	0.14096379	-0.021914205	0.59057097	0.029898081	0.11981844	0.23668832	0.38080383	-0.10310851	0.65227732	0.45123307	0.16214635	0.25509254	0.34028931	0.01262804	0.64172838	0.45773985	0.033650542	0.34123296	0.74738076	-0.13637262	0.46211415	0.81382388	0.23267326	0.43062789	0.84970664	-0.092383851	0.49779373	0.89006677	0.13923231	0.26999606	0.8868512	0.073572756	0.43613454	1.3457181	-0.10401237	0.4318754	1.332916	0.21697434	0.34668415	1.3700593	0.051222866	0.42113016	0.99638416	-0.1763085	0.27716501	1.0208565	0.22514323	0.6344529	0.89790491	-0.11258983	0.29637217	0.80852001	0.34049349
